<?xml version="1.0" encoding="UTF-8"?>
<svg id="Layer_2" data-name="Layer 2" xmlns="http://www.w3.org/2000/svg" viewBox="0 0 3843 2163">
  <defs>
    <style>
      .cls-1 {
        fill: none;
        stroke: #d6679a;
        stroke-miterlimit: 10;
        stroke-width: 3px;
      }

      .cls-2 {
        fill: #bc2a50;
        stroke-width: 0px;
      }
    </style>
  </defs>
  <g id="Layer_1-2" data-name="Layer 1">
    <rect class="cls-2" x="1.5" y="1.5" width="3840" height="2160"/>
    <g>
      <path class="cls-1" d="M1.5,52.11v404.04c4.5-.44,8.99-1.04,13.49-1.8,4.78-.76,10.44-1.95,14.62-2.98,5.38-1.37,8.1-2.59,8.96-4.1,4.35-30.83,31.71-270.7,48.91-420.44L1.5,52.11Z"/>
      <path class="cls-1" d="M649.17,1.5c-4.22,19.11-8.09,36.68-11.02,50.02-2.18,7.85-2.06,14.45-5.68,20.5-2.48,3.64-7.12,5.58-11.43,5.65-5.27.12-8.43-3.93-10.55-8.15-9.22-16.93-22.55-41.38-37.1-68.02h-207.85c-13.98,50.98-21.19,106.19-31.29,152.49-1.71,6.48-3.64,12.57-8.32,17.15-5.77,5.44-13.95,4.57-19.38.05l-.15-.12c-4.35-3.63-7.26-8.9-10.23-13.87-12.26-19.55-31.8-56.3-45.56-75.13-8.01-7.75-23.38,3.26-31.73,8.53-35.32,24.43-44.61,70.27-32.03,109.74,4.2,13.66,10.89,27.01,18.02,39.08,43.87,76.8,137.62,116.85,223.28,94.64,5.66-1.65,9.1-3.5,9.65-8.88,5.66-47.61,21.38-182.96,28.45-242.79.86-7.33.6-14.65,8.76-15.65,7.73-.74,12.02,8.02,15.3,14.07,14.59,26.24,28.7,59.11,46.8,83.98,44.29,60.56,119.8,91.51,194.24,78.96,4.78-.76,10.44-1.95,14.61-2.97,5.39-1.38,8.1-2.59,8.97-4.11,2.76-19.59,14.81-123.55,27.64-235.17h-133.4Z"/>
      <path class="cls-1" d="M907.43,1.5c3.88,9.52,8.73,18.74,13.78,27.32,43.88,76.81,137.64,116.85,223.3,94.64,5.66-1.65,9.1-3.5,9.65-8.87,2.76-23.18,7.89-67.16,13.25-113.09h-259.98ZM1302.61,1.5c41.79,28.24,93.7,40.32,145.1,31.66,4.77-.77,10.43-1.96,14.6-2.98,5.39-1.38,8.11-2.59,8.98-4.11.61-4.33,1.68-12.8,3.11-24.57h-171.79Z"/>
      <path class="cls-1" d="M25.71,553.59c-.53-.38-1.56-.39-2.36-.24-.33.04-.7.1-1.04.17-.16.04-.14.03-.51.11-4.28,1.05-7.81,2.37-12.69,4.17-1.6.6-3.24,1.24-4.9,1.9-.91.32-1.81.66-2.71,1v208.44c11.72-102.23,22.18-193.61,24.61-213.09.13-1.17.18-2.04-.4-2.46Z"/>
      <path class="cls-1" d="M742.07,342.99c-.53-.38-1.58-.38-2.38-.23-.32.03-.68.09-1.02.16-.16.04-.14.03-.51.11-4.28,1.05-7.82,2.37-12.69,4.17-1.6.61-3.25,1.24-4.9,1.9-66.51,23.71-100.27,87.21-117.68,168.85-7.66,34.49-29.41,132.74-39.63,179.31-2.18,7.84-2.06,14.44-5.7,20.5-2.47,3.64-7.1,5.59-11.41,5.64-5.28.12-8.43-3.93-10.55-8.14-28.39-52.13-95.7-175.26-117.28-214.95-1.65-3.24-3.69-5.34-7.79-4.74-119.53,35.08-127.29,194.58-151.18,304.16-1.7,6.47-3.65,12.57-8.32,17.14-5.77,5.44-13.94,4.57-19.37.05l-.15-.11c-4.37-3.63-7.26-8.91-10.25-13.88-12.24-19.54-31.78-56.29-45.54-75.13-8.01-7.75-23.38,3.26-31.73,8.53-35.32,24.43-44.61,70.27-32.04,109.75,4.2,13.65,10.9,27,18.01,39.07,43.88,76.81,137.64,116.85,223.3,94.64,5.66-1.65,9.1-3.5,9.65-8.87,5.65-47.62,21.38-182.97,28.45-242.8.86-7.31.6-14.65,8.76-15.64,7.72-.75,12.02,8.01,15.28,14.06,14.6,26.25,28.71,59.11,46.81,83.98,44.3,60.56,119.81,91.51,194.25,78.97,4.78-.77,10.43-1.96,14.6-2.98,5.39-1.37,8.11-2.59,8.98-4.09,6.04-42.93,56.68-490.91,62.41-536.97.15-1.17.2-2.04-.38-2.46Z"/>
      <path class="cls-1" d="M1458.43,132.39c-.53-.38-1.58-.38-2.38-.23-.32.03-.68.09-1.02.16-.17.04-.14.03-.51.11-4.28,1.05-7.82,2.37-12.7,4.18-1.59.6-3.25,1.23-4.91,1.9-66.49,23.71-100.25,87.2-117.67,168.84-7.65,34.49-29.4,132.74-39.63,179.31-2.19,7.85-2.05,14.44-5.69,20.5-2.47,3.64-7.1,5.59-11.41,5.64-5.28.12-8.44-3.92-10.56-8.14-28.38-52.13-95.69-175.26-117.27-214.95-1.65-3.24-3.69-5.34-7.8-4.73-119.52,35.07-127.28,194.58-151.18,304.15-1.7,6.48-3.64,12.57-8.31,17.14-5.77,5.44-13.94,4.57-19.38.06l-.14-.12c-4.37-3.63-7.28-8.9-10.25-13.88-12.26-19.54-31.79-56.29-45.55-75.13-8-7.75-23.37,3.26-31.72,8.53-35.32,24.43-44.62,70.28-32.04,109.75,4.2,13.65,10.9,27,18.01,39.08,43.88,76.8,137.64,116.84,223.3,94.63,5.66-1.65,9.08-3.5,9.65-8.87,5.64-47.61,21.38-182.97,28.44-242.8.87-7.31.61-14.65,8.77-15.64,7.71-.75,12.02,8.01,15.28,14.06,14.6,26.25,28.71,59.11,46.81,83.98,44.3,60.56,119.79,91.52,194.25,78.97,4.76-.77,10.43-1.96,14.6-2.98,5.38-1.37,8.11-2.59,8.98-4.09,6.03-42.93,56.68-490.91,62.41-536.97.14-1.16.2-2.04-.38-2.46Z"/>
      <path class="cls-1" d="M2069.41,1.5c-15.36,27.03-26.16,59.39-33.81,95.25-7.67,34.49-29.4,132.74-39.64,179.31-2.18,7.85-2.06,14.44-5.68,20.5-2.47,3.64-7.12,5.6-11.41,5.64-5.28.12-8.45-3.92-10.56-8.14-28.38-52.13-95.71-175.26-117.27-214.95-1.65-3.24-3.69-5.34-7.81-4.73-119.51,35.07-127.27,194.58-151.17,304.15-1.7,6.48-3.64,12.57-8.31,17.14-5.78,5.44-13.96,4.58-19.38.06l-.16-.12c-4.35-3.63-7.26-8.9-10.23-13.88-12.26-19.54-31.8-56.29-45.55-75.12-8-7.76-23.38,3.26-31.72,8.52-35.34,24.44-44.63,70.28-32.04,109.75,4.2,13.65,10.88,27.01,18.01,39.08,43.88,76.8,137.64,116.84,223.29,94.64,5.67-1.66,9.09-3.51,9.66-8.88,5.64-47.61,21.37-182.97,28.43-242.79.88-7.32.61-14.65,8.78-15.65,7.71-.74,12.02,8.01,15.28,14.07,14.59,26.24,28.7,59.11,46.8,83.98,44.31,60.56,119.8,91.51,194.24,78.96,4.78-.77,10.44-1.96,14.62-2.98,5.38-1.37,8.1-2.59,8.97-4.08,4.74-33.72,37-317.24,53.41-459.73h-96.75Z"/>
      <path class="cls-1" d="M2726.42,1.5c-5.38,24.39-10.47,47.43-14.1,63.96-2.18,7.85-2.06,14.45-5.68,20.5-2.48,3.64-7.12,5.6-11.43,5.65-5.27.12-8.43-3.93-10.54-8.15-10.82-19.86-27.29-50.03-44.72-81.96h-196.19c-16.73,54.69-24.31,115.87-35.34,166.43-1.7,6.48-3.64,12.57-8.32,17.14-5.77,5.45-13.95,4.58-19.37.06l-.16-.12c-4.35-3.63-7.26-8.9-10.23-13.87-12.26-19.55-31.8-56.3-45.55-75.13-8.02-7.75-23.39,3.26-31.74,8.53-35.32,24.43-44.61,70.27-32.03,109.74,4.2,13.66,10.89,27.01,18.02,39.08,43.87,76.8,137.64,116.84,223.28,94.64,5.66-1.65,9.1-3.5,9.66-8.88,5.65-47.61,21.38-182.97,28.44-242.79.88-7.32.6-14.65,8.76-15.65,7.73-.74,12.02,8.01,15.3,14.07,14.59,26.24,28.7,59.11,46.8,83.98,44.29,60.56,119.8,91.51,194.24,78.96,4.78-.76,10.44-1.95,14.62-2.98,5.38-1.37,8.09-2.58,8.97-4.08,2.87-20.41,15.82-132.35,29.23-249.13h-131.92Z"/>
      <path class="cls-1" d="M2976.71,1.5c.22.73.44,1.46.67,2.18,4.2,13.66,10.89,27.01,18.02,39.08,43.87,76.8,137.62,116.85,223.28,94.64,5.66-1.65,9.1-3.5,9.65-8.88,3.03-25.52,8.95-76.23,14.89-127.02h-266.51ZM3358.52,1.5c44.31,38.05,104.17,55.57,163.36,45.59,4.78-.76,10.43-1.95,14.6-2.97,5.4-1.38,8.11-2.59,8.98-4.09.83-5.9,2.5-19.44,4.78-38.53h-191.72Z"/>
      <path class="cls-1" d="M217.6,1021.04c-.53-.37-1.56-.37-2.37-.24-.32.05-.69.11-1.02.18-.17.04-.14.03-.51.11-4.28,1.05-7.82,2.37-12.7,4.16-1.6.6-3.24,1.25-4.9,1.91-66.51,23.72-100.25,87.21-117.68,168.84-7.66,34.5-29.39,132.75-39.63,179.32-2.18,7.84-2.06,14.44-5.68,20.49-2.48,3.65-7.12,5.59-11.43,5.64-5.26.13-8.43-3.91-10.54-8.13-2.85-5.23-6.09-11.19-9.64-17.7v169.25c38.96,21.73,84.93,30.34,130.49,22.66,4.78-.75,10.44-1.94,14.62-2.98,5.38-1.37,8.1-2.57,8.96-4.08,6.05-42.92,56.7-490.91,62.43-536.96.14-1.17.2-2.04-.4-2.47Z"/>
      <path class="cls-1" d="M933.95,810.44c-.52-.37-1.55-.37-2.36-.24-.32.05-.69.11-1.03.18-.16.04-.14.03-.5.11-4.28,1.05-7.82,2.37-12.7,4.16-1.6.6-3.24,1.25-4.9,1.91-66.51,23.72-100.25,87.21-117.68,168.84-7.66,34.5-29.41,132.75-39.63,179.32-2.18,7.84-2.06,14.44-5.68,20.49-2.48,3.65-7.12,5.59-11.43,5.64-5.28.13-8.43-3.91-10.55-8.13-28.39-52.13-95.7-175.26-117.27-214.95-1.65-3.24-3.7-5.34-7.8-4.74-119.53,35.08-127.28,194.58-151.17,304.16-1.71,6.46-3.64,12.57-8.32,17.14-5.77,5.44-13.95,4.56-19.38.06l-.15-.12c-4.35-3.64-7.26-8.91-10.23-13.88-12.26-19.54-31.8-56.29-45.56-75.13-8.01-7.75-23.38,3.27-31.73,8.53-35.32,24.43-44.61,70.27-32.03,109.75,4.2,13.65,10.88,26.99,18.02,39.07,43.87,76.79,137.64,116.85,223.28,94.63,5.66-1.64,9.1-3.49,9.65-8.88,5.66-47.6,21.38-182.95,28.45-242.78.86-7.32.6-14.66,8.76-15.64,7.73-.75,12.02,8,15.3,14.06,14.59,26.24,28.69,59.1,46.79,83.97,44.3,60.57,119.8,91.51,194.25,78.96,4.78-.75,10.43-1.94,14.6-2.97,5.4-1.38,8.11-2.58,8.98-4.09,6.05-42.92,56.68-490.9,62.43-536.96.14-1.17.18-2.04-.41-2.47Z"/>
      <path class="cls-1" d="M1650.31,599.84c-.52-.37-1.57-.37-2.37-.23-.32.04-.68.11-1.02.17-.16.04-.14.03-.51.11-4.28,1.05-7.82,2.37-12.69,4.16-1.6.6-3.25,1.25-4.9,1.92-66.51,23.71-100.27,87.21-117.68,168.83-7.66,34.5-29.41,132.75-39.63,179.32-2.18,7.85-2.06,14.44-5.7,20.5-2.47,3.64-7.11,5.58-11.41,5.63-5.28.13-8.43-3.91-10.55-8.13-28.39-52.13-95.7-175.26-117.28-214.95-1.65-3.24-3.69-5.33-7.79-4.74-119.53,35.08-127.29,194.59-151.17,304.16-1.71,6.46-3.66,12.57-8.33,17.14-5.77,5.44-13.94,4.56-19.37.06l-.15-.12c-4.35-3.63-7.27-8.91-10.25-13.87-12.24-19.55-31.78-56.3-45.54-75.13-8.01-7.76-23.38,3.26-31.73,8.52-35.32,24.43-44.61,70.28-32.04,109.75,4.2,13.65,10.89,26.99,18.03,39.07,43.85,76.8,137.62,116.85,223.28,94.63,5.66-1.63,9.1-3.49,9.64-8.87,5.66-47.61,21.39-182.96,28.46-242.79.86-7.32.6-14.66,8.76-15.64,7.73-.75,12.02,8,15.28,14.07,14.61,26.23,28.71,59.09,46.81,83.96,44.3,60.58,119.8,91.51,194.24,78.97,4.78-.76,10.44-1.95,14.61-2.98,5.38-1.38,8.11-2.58,8.98-4.09,6.04-42.92,56.68-490.9,62.41-536.96.15-1.16.2-2.04-.39-2.47Z"/>
      <path class="cls-1" d="M2366.67,389.24c-.52-.37-1.57-.37-2.38-.23-.31.04-.67.11-1.01.18-.17.03-.14.02-.51.1-4.28,1.05-7.82,2.37-12.71,4.17-1.58.6-3.24,1.25-4.9,1.91-66.49,23.71-100.25,87.21-117.68,168.83-7.64,34.5-29.39,132.76-39.62,179.32-2.19,7.85-2.06,14.44-5.69,20.5-2.47,3.64-7.11,5.58-11.41,5.63-5.28.13-8.44-3.91-10.56-8.13-28.38-52.13-95.69-175.26-117.27-214.94-1.65-3.25-3.69-5.34-7.8-4.74-119.52,35.07-127.28,194.58-151.18,304.15-1.71,6.47-3.64,12.57-8.31,17.14-5.77,5.44-13.94,4.56-19.37.06l-.15-.12c-4.37-3.63-7.28-8.9-10.25-13.87-12.26-19.55-31.79-56.3-45.55-75.13-8-7.76-23.37,3.26-31.72,8.52-35.33,24.43-44.61,70.28-32.04,109.75,4.2,13.66,10.89,26.99,18.01,39.08,43.87,76.79,137.64,116.84,223.3,94.62,5.66-1.63,9.08-3.48,9.64-8.87,5.65-47.6,21.39-182.96,28.45-242.78.87-7.33.61-14.67,8.77-15.65,7.71-.74,12.01,8,15.28,14.07,14.6,26.24,28.71,59.09,46.81,83.96,44.3,60.58,119.79,91.52,194.24,78.97,4.77-.75,10.44-1.95,14.61-2.98,5.38-1.38,8.11-2.58,8.98-4.09,6.03-42.92,56.68-490.9,62.41-536.95.14-1.17.2-2.05-.39-2.48Z"/>
      <path class="cls-1" d="M3083.02,178.64c-.53-.36-1.56-.37-2.37-.23-.32.05-.68.11-1.02.18-.16.03-.14.03-.51.1-4.28,1.05-7.81,2.37-12.7,4.17-1.6.6-3.24,1.25-4.9,1.91-66.49,23.71-100.25,87.21-117.68,168.83-7.66,34.5-29.39,132.76-39.63,179.32-2.18,7.85-2.05,14.44-5.68,20.5-2.47,3.64-7.12,5.58-11.41,5.63-5.28.13-8.45-3.91-10.56-8.13-28.38-52.12-95.71-175.26-117.27-214.94-1.65-3.25-3.69-5.34-7.81-4.74-119.51,35.08-127.27,194.58-151.17,304.15-1.71,6.47-3.64,12.57-8.31,17.14-5.78,5.45-13.96,4.57-19.38.06l-.14-.12c-4.37-3.63-7.28-8.9-10.25-13.87-12.26-19.55-31.8-56.29-45.55-75.13-8.01-7.76-23.37,3.26-31.72,8.53-35.33,24.43-44.63,70.27-32.04,109.74,4.2,13.66,10.88,27,18.01,39.08,43.87,76.79,137.64,116.84,223.3,94.62,5.66-1.63,9.08-3.48,9.64-8.87,5.65-47.6,21.38-182.96,28.45-242.78.87-7.33.59-14.67,8.77-15.65,7.71-.74,12.01,8,15.28,14.07,14.59,26.24,28.71,59.09,46.79,83.97,44.32,60.57,119.81,91.51,194.25,78.96,4.78-.75,10.45-1.95,14.62-2.98,5.38-1.37,8.1-2.58,8.96-4.09,6.05-42.92,56.7-490.9,62.43-536.95.14-1.17.2-2.05-.4-2.48Z"/>
      <path class="cls-1" d="M3731.03,1.5c-36.62,31.83-58.09,81.82-70.83,141.5-7.66,34.51-29.39,132.76-39.63,179.32-2.18,7.85-2.06,14.45-5.68,20.5-2.48,3.65-7.12,5.59-11.43,5.64-5.26.12-8.43-3.92-10.55-8.13-28.37-52.13-95.7-175.27-117.27-214.95-1.65-3.25-3.7-5.34-7.8-4.74-119.52,35.08-127.28,194.58-151.17,304.15-1.71,6.47-3.64,12.57-8.32,17.15-5.77,5.44-13.95,4.56-19.38.05l-.15-.11c-4.35-3.64-7.26-8.91-10.23-13.88-12.26-19.55-31.8-56.29-45.55-75.13-8.02-7.75-23.39,3.26-31.72,8.53-35.34,24.43-44.63,70.27-32.05,109.74,4.21,13.66,10.88,27,18.02,39.08,43.87,76.79,137.64,116.84,223.28,94.63,5.66-1.64,9.1-3.49,9.66-8.88,5.65-47.6,21.38-182.95,28.44-242.78.88-7.33.6-14.66,8.76-15.64,7.73-.75,12.02,7.99,15.3,14.06,14.59,26.24,28.69,59.1,46.79,83.97,44.3,60.57,119.8,91.51,194.25,78.96,4.78-.75,10.44-1.94,14.61-2.98,5.39-1.37,8.1-2.57,8.97-4.08,5.35-37.95,45.55-392.46,58.77-505.98"/>
      <path class="cls-1" d="M160.7,1671.38c-.53-.38-1.57-.38-2.37-.25-.33.05-.69.12-1.03.18-.17.04-.14.03-.5.11-4.28,1.05-7.83,2.37-12.7,4.17-1.6.59-3.25,1.24-4.9,1.9-66.51,23.72-100.25,87.21-117.68,168.85-4.02,18.12-11.93,53.84-20.02,90.42v224.74h103.24c15.2-128.18,51.55-449.07,56.35-487.66.15-1.17.19-2.04-.39-2.46Z"/>
      <path class="cls-1" d="M877.05,1460.78c-.52-.38-1.56-.38-2.36-.25-.33.05-.69.12-1.03.18-.17.04-.14.03-.5.11-4.3,1.05-7.83,2.37-12.7,4.18-1.6.58-3.25,1.23-4.9,1.89-66.51,23.72-100.25,87.21-117.68,168.85-7.66,34.49-29.41,132.74-39.64,179.31-2.17,7.85-2.06,14.44-5.68,20.49-2.48,3.65-7.12,5.59-11.42,5.64-5.28.13-8.44-3.91-10.55-8.13-28.39-52.13-95.7-175.26-117.27-214.95-1.65-3.24-3.7-5.33-7.8-4.74-119.53,35.08-127.28,194.58-151.17,304.16-1.71,6.46-3.65,12.57-8.33,17.14-5.77,5.44-13.95,4.56-19.37.06l-.15-.12c-4.36-3.63-7.27-8.91-10.24-13.88-12.26-19.54-31.79-56.29-45.56-75.12-8-7.76-23.37,3.26-31.72,8.52-35.33,24.43-44.61,70.28-32.03,109.75,4.19,13.65,10.88,27,18.01,39.07,43.88,76.79,137.64,116.85,223.29,94.64,5.66-1.64,9.09-3.5,9.64-8.88,5.66-47.61,21.38-182.96,28.45-242.79.87-7.32.6-14.66,8.77-15.64,7.73-.75,12.01,8,15.29,14.06,14.6,26.24,28.7,59.1,46.8,83.98,44.3,60.57,119.8,91.5,194.24,78.96,4.78-.76,10.44-1.95,14.61-2.97,5.39-1.39,8.1-2.59,8.98-4.1,6.04-42.92,56.68-490.9,62.42-536.96.15-1.17.19-2.04-.4-2.46Z"/>
      <path class="cls-1" d="M1593.41,1250.18c-.52-.38-1.57-.38-2.38-.24-.31.04-.68.11-1.01.18-.17.03-.14.02-.52.1-4.28,1.05-7.81,2.37-12.68,4.18-1.61.59-3.25,1.23-4.91,1.9-66.51,23.71-100.26,87.21-117.67,168.84-7.67,34.49-29.41,132.75-39.64,179.31-2.18,7.85-2.06,14.44-5.69,20.5-2.47,3.64-7.11,5.58-11.42,5.63-5.27.13-8.43-3.91-10.54-8.13-28.39-52.13-95.7-175.26-117.29-214.94-1.65-3.25-3.68-5.34-7.78-4.74-119.53,35.08-127.29,194.58-151.18,304.15-1.71,6.46-3.65,12.57-8.32,17.14-5.77,5.44-13.95,4.56-19.37.06l-.15-.12c-4.37-3.63-7.27-8.91-10.25-13.87-12.25-19.55-31.78-56.3-45.55-75.13-8.01-7.76-23.37,3.26-31.72,8.52-35.33,24.43-44.61,70.28-32.05,109.75,4.21,13.66,10.9,27.01,18.03,39.07,43.86,76.8,137.63,116.85,223.29,94.64,5.66-1.64,9.09-3.5,9.64-8.88,5.66-47.61,21.38-182.96,28.45-242.78.87-7.33.6-14.67,8.77-15.65,7.72-.75,12.01,8,15.28,14.07,14.59,26.24,28.71,59.09,46.81,83.97,44.3,60.57,119.8,91.5,194.24,78.96,4.78-.76,10.44-1.95,14.61-2.97,5.38-1.39,8.1-2.59,8.98-4.1,6.04-42.92,56.68-490.9,62.41-536.95.14-1.17.2-2.05-.39-2.47Z"/>
      <path class="cls-1" d="M2309.77,1039.58c-.52-.37-1.58-.38-2.38-.24-.31.04-.68.11-1.01.18-.17.03-.14.02-.52.1-4.28,1.05-7.81,2.37-12.7,4.18-1.59.59-3.25,1.24-4.9,1.9-66.5,23.71-100.25,87.21-117.68,168.85-7.65,34.48-29.39,132.74-39.62,179.3-2.19,7.85-2.06,14.44-5.7,20.5-2.46,3.64-7.1,5.58-11.41,5.63-5.27.13-8.43-3.91-10.56-8.13-28.38-52.12-95.69-175.26-117.27-214.94-1.65-3.25-3.68-5.34-7.8-4.74-119.51,35.08-127.28,194.58-151.17,304.15-1.71,6.47-3.65,12.57-8.31,17.14-5.77,5.44-13.95,4.56-19.39.06l-.14-.12c-4.36-3.63-7.27-8.9-10.25-13.87-12.25-19.55-31.79-56.29-45.54-75.13-8.01-7.76-23.37,3.26-31.73,8.53-35.32,24.43-44.62,70.27-32.04,109.74,4.21,13.66,10.9,27.01,18.02,39.08,43.87,76.79,137.64,116.84,223.3,94.64,5.65-1.65,9.08-3.5,9.64-8.89,5.64-47.6,21.38-182.96,28.45-242.78.86-7.33.6-14.67,8.76-15.65,7.72-.74,12.02,8,15.28,14.07,14.6,26.24,28.71,59.09,46.82,83.97,44.3,60.57,119.78,91.51,194.24,78.96,4.77-.75,10.44-1.95,14.61-2.97,5.38-1.38,8.1-2.59,8.97-4.1,6.03-42.92,56.68-490.9,62.42-536.95.14-1.17.19-2.05-.39-2.47Z"/>
      <path class="cls-1" d="M3026.12,828.99c-.53-.38-1.57-.38-2.37-.25-.33.05-.68.11-1.03.18-.17.04-.14.03-.5.1-4.28,1.06-7.81,2.38-12.7,4.18-1.6.59-3.25,1.24-4.9,1.9-66.5,23.71-100.25,87.21-117.68,168.85-7.66,34.49-29.39,132.74-39.64,179.3-2.17,7.85-2.04,14.44-5.68,20.5-2.46,3.64-7.12,5.59-11.41,5.63-5.27.13-8.44-3.91-10.56-8.12-28.38-52.13-95.7-175.27-117.27-214.95-1.65-3.25-3.69-5.34-7.8-4.74-119.51,35.08-127.28,194.58-151.17,304.15-1.71,6.47-3.65,12.57-8.31,17.14-5.79,5.45-13.96,4.57-19.39.06l-.15-.11c-4.35-3.64-7.27-8.91-10.24-13.88-12.25-19.55-31.79-56.29-45.54-75.13-8.01-7.76-23.39,3.26-31.73,8.53-35.33,24.43-44.62,70.27-32.04,109.75,4.21,13.65,10.89,27,18.02,39.07,43.87,76.79,137.63,116.84,223.3,94.64,5.65-1.65,9.08-3.5,9.64-8.89,5.64-47.6,21.38-182.96,28.45-242.78.86-7.33.59-14.66,8.76-15.65,7.72-.74,12.02,8,15.28,14.07,14.6,26.24,28.7,59.1,46.8,83.98,44.31,60.56,119.8,91.5,194.24,78.95,4.78-.75,10.46-1.95,14.63-2.96,5.37-1.39,8.1-2.59,8.96-4.1,6.04-42.93,56.69-490.91,62.42-536.96.15-1.17.2-2.04-.39-2.46Z"/>
      <path class="cls-1" d="M3742.47,618.39c-.52-.38-1.56-.38-2.36-.25-.33.05-.69.11-1.03.18-.17.04-.14.03-.5.11-4.28,1.05-7.83,2.37-12.7,4.17-1.6.59-3.25,1.24-4.9,1.9-66.51,23.71-100.25,87.21-117.68,168.85-7.66,34.49-29.4,132.74-39.64,179.31-2.17,7.84-2.06,14.44-5.68,20.49-2.48,3.65-7.12,5.59-11.42,5.64-5.28.13-8.44-3.92-10.55-8.13-28.38-52.13-95.7-175.26-117.27-214.95-1.65-3.25-3.7-5.34-7.8-4.74-119.53,35.08-127.28,194.58-151.17,304.15-1.71,6.47-3.65,12.58-8.33,17.15-5.77,5.44-13.95,4.56-19.37.05l-.15-.11c-4.36-3.64-7.27-8.91-10.24-13.88-12.26-19.54-31.79-56.29-45.54-75.13-8.02-7.75-23.39,3.26-31.74,8.53-35.33,24.43-44.61,70.27-32.03,109.75,4.21,13.65,10.88,27,18.01,39.07,43.88,76.79,137.64,116.84,223.29,94.64,5.66-1.65,9.09-3.5,9.66-8.89,5.64-47.6,21.38-182.95,28.43-242.78.88-7.33.61-14.66,8.77-15.64,7.73-.75,12.01,7.99,15.29,14.06,14.6,26.24,28.7,59.1,46.8,83.98,44.3,60.56,119.8,91.5,194.24,78.95,4.78-.75,10.44-1.94,14.62-2.96,5.38-1.39,8.1-2.59,8.97-4.1,6.04-42.92,56.68-490.9,62.42-536.96.15-1.17.19-2.04-.4-2.46Z"/>
      <path class="cls-1" d="M3828.73,910.88c3.14,10.23,7.68,20.29,12.77,29.78v-121c-19.06,25.39-22.63,60.26-12.77,91.22Z"/>
      <path class="cls-1" d="M1216.91,1958.2c-.52-.37-1.57-.39-2.37-.24-.31.05-.68.11-1.02.18-.16.04-.14.03-.51.11-4.28,1.04-7.81,2.37-12.69,4.16-1.6.6-3.25,1.23-4.9,1.9-66.51,23.71-100.27,87.21-117.68,168.84-1.57,7.09-3.74,16.87-6.29,28.35h122.65c11.15-97.2,20.87-182.14,23.2-200.83.14-1.18.2-2.05-.39-2.47ZM893.17,2115.52c-1.65-3.25-3.69-5.34-7.79-4.74-31.62,9.28-55.41,27.26-73.75,50.72h106.61c-10.51-19.24-19.38-35.51-25.07-45.98Z"/>
      <path class="cls-1" d="M1933.27,1747.6c-.52-.37-1.57-.38-2.37-.24-.32.05-.68.11-1.02.18-.16.04-.14.03-.51.11-4.29,1.04-7.82,2.37-12.71,4.16-1.58.6-3.24,1.24-4.9,1.9-66.5,23.71-100.25,87.21-117.67,168.85-7.65,34.5-29.4,132.74-39.63,179.3-2.19,7.87-2.05,14.46-5.69,20.5-2.47,3.64-7.11,5.6-11.41,5.65-5.28.13-8.44-3.93-10.56-8.13-28.38-52.14-95.69-175.28-117.28-214.96-1.65-3.25-3.68-5.34-7.8-4.74-104.66,30.72-123.62,156.87-142.76,261.32h120.22c1.26-10.75,2.41-20.48,3.39-28.76.86-7.33.6-14.66,8.76-15.66,7.71-.74,12.02,8.01,15.28,14.07,5.27,9.49,10.48,19.83,15.84,30.35h263.78c17.32-149.31,43.41-379.15,47.43-411.43.14-1.18.2-2.05-.39-2.47ZM1366.92,2132.41c-8-7.74-23.37,3.26-31.72,8.54-8.35,5.78-15.25,12.75-20.73,20.55h70.97c-6.54-11.07-13-21.53-18.52-29.09Z"/>
      <path class="cls-1" d="M2649.62,1537c-.52-.36-1.57-.38-2.37-.24-.32.05-.69.12-1.02.19-.17.03-.14.02-.5.1-4.29,1.04-7.83,2.38-12.71,4.16-1.6.61-3.25,1.24-4.9,1.9-66.51,23.72-100.25,87.21-117.68,168.85-7.66,34.5-29.39,132.74-39.63,179.31-2.18,7.86-2.06,14.45-5.68,20.49-2.47,3.64-7.12,5.6-11.41,5.65-5.28.13-8.45-3.92-10.56-8.13-28.39-52.14-95.71-175.27-117.28-214.96-1.65-3.25-3.68-5.34-7.8-4.74-119.51,35.08-127.27,194.6-151.17,304.16-1.71,6.48-3.64,12.58-8.31,17.13-5.79,5.45-13.96,4.58-19.38.08l-.16-.13c-4.35-3.62-7.26-8.89-10.23-13.87-12.26-19.54-31.8-56.3-45.55-75.14-8-7.74-23.39,3.26-31.72,8.54-35.34,24.44-44.63,70.26-32.05,109.74,4.21,13.66,10.89,27,18.02,39.07,21.04,36.84,53.57,65.23,91.18,82.34h142.16c5.97-50.35,21.15-180.9,28.04-239.35.88-7.34.6-14.67,8.78-15.67,7.71-.74,12.01,8.01,15.28,14.07,14.6,26.26,28.69,59.11,46.8,83.98,44.31,60.57,119.8,91.51,194.24,78.97,4.78-.77,10.43-1.96,14.62-2.98,5.38-1.38,8.1-2.59,8.96-4.09,6.05-42.92,56.7-490.92,62.43-536.96.14-1.18.19-2.05-.4-2.47Z"/>
      <path class="cls-1" d="M3365.98,1326.4c-.52-.36-1.57-.38-2.37-.24-.32.06-.69.12-1.02.19-.17.03-.14.02-.51.1-4.28,1.04-7.82,2.38-12.7,4.16-1.6.61-3.25,1.24-4.9,1.9-66.51,23.72-100.25,87.21-117.68,168.85-7.66,34.5-29.39,132.74-39.64,179.31-2.17,7.86-2.05,14.45-5.68,20.49-2.48,3.65-7.11,5.6-11.42,5.66-5.27.13-8.43-3.93-10.54-8.14-28.4-52.14-95.71-175.27-117.28-214.96-1.65-3.24-3.7-5.34-7.8-4.74-119.53,35.08-127.27,194.6-151.17,304.16-1.71,6.48-3.64,12.58-8.33,17.14-5.77,5.44-13.94,4.57-19.36.07l-.16-.13c-4.35-3.62-7.26-8.89-10.23-13.87-12.26-19.54-31.8-56.3-45.55-75.14-8.02-7.74-23.39,3.27-31.74,8.55-35.32,24.43-44.61,70.26-32.03,109.73,4.2,13.67,10.89,27,18.02,39.07,43.87,76.81,137.64,116.86,223.28,94.64,5.66-1.65,9.1-3.5,9.66-8.87,5.65-47.6,21.38-182.96,28.44-242.78.88-7.33.6-14.67,8.76-15.66,7.73-.75,12.02,8.01,15.29,14.06,14.6,26.26,28.7,59.11,46.8,83.98,44.3,60.58,119.81,91.51,194.25,78.97,4.77-.77,10.43-1.96,14.62-2.98,5.38-1.38,8.09-2.59,8.96-4.09,6.05-42.92,56.68-490.91,62.43-536.96.14-1.18.18-2.05-.4-2.47Z"/>
      <path class="cls-1" d="M3758.59,1273.13c-1.64-3.25-3.69-5.34-7.79-4.75-119.53,35.09-127.28,194.6-151.17,304.16-1.71,6.48-3.66,12.59-8.33,17.14-5.77,5.44-13.94,4.57-19.36.07l-.16-.13c-4.35-3.62-7.26-8.89-10.23-13.86-12.26-19.55-31.8-56.31-45.57-75.14-8-7.74-23.37,3.26-31.72,8.54-35.32,24.43-44.61,70.26-32.03,109.73,4.2,13.67,10.88,27.01,18.01,39.07,43.88,76.81,137.63,116.87,223.29,94.64,5.66-1.64,9.09-3.5,9.65-8.87,5.66-47.6,21.38-182.95,28.45-242.78.86-7.33.6-14.67,8.76-15.66,7.73-.75,12.02,8.01,15.29,14.06,14.6,26.26,28.7,59.11,46.8,83.98,11.19,15.3,24.37,28.71,39.02,40.01v-198.27c-30.77-56.37-67.9-124.34-82.91-151.94Z"/>
      <path class="cls-1" d="M2587.45,2152.62c-.52-.38-1.57-.38-2.38-.23-.31.03-.68.09-1.01.16-.17.04-.14.03-.52.11-4.28,1.05-7.81,2.37-12.7,4.18-1.58.59-3.24,1.23-4.9,1.9-2.43.87-4.81,1.78-7.15,2.76h28.27c.31-2.63.58-4.78.78-6.42.14-1.17.19-2.04-.39-2.46Z"/>
      <path class="cls-1" d="M3303.8,1942.02c-.53-.37-1.57-.38-2.37-.23-.33.03-.68.09-1.01.16-.17.04-.16.03-.52.11-4.28,1.05-7.81,2.37-12.7,4.18-1.58.6-3.25,1.23-4.9,1.9-66.5,23.7-100.25,87.2-117.68,168.84-2.27,10.23-5.78,26.08-9.86,44.52h124.38c11.9-103.81,22.59-197.29,25.05-217.02.15-1.17.2-2.04-.39-2.46ZM2980.06,2099.34c-1.65-3.24-3.68-5.34-7.8-4.73-38.53,11.3-65.45,35.55-85.03,66.89h126.72c-14.3-26.21-26.66-48.87-33.89-62.16Z"/>
      <path class="cls-1" d="M3841.34,2085.69c-2.17,7.85-2.05,14.44-5.68,20.5-2.48,3.64-7.12,5.58-11.42,5.65-5.26.11-8.44-3.93-10.55-8.15-28.38-52.13-95.7-175.26-117.27-214.95-1.65-3.24-3.7-5.33-7.8-4.73-110.14,32.32-125.37,170.29-145.78,277.49h121.33c2.01-17.22,3.82-32.66,5.27-44.94.88-7.34.61-14.66,8.77-15.65,7.73-.75,12.03,8.01,15.29,14.06,7.24,12.99,14.34,27.64,21.88,42.1l126.12-37.08v-35.02c-.05.24-.11.48-.16.72ZM3453.82,2116.23c-8.01-7.75-23.39,3.27-31.73,8.53-13.79,9.54-23.61,22.33-29.71,36.74h89.38c-9.52-16.5-19.76-34.06-27.94-45.27Z"/>
    </g>
  </g>
</svg>