<?xml version="1.0" encoding="UTF-8"?>
<svg id="Layer_2" data-name="Layer 2" xmlns="http://www.w3.org/2000/svg" viewBox="0 0 1304.55 878.07">
  <defs>
    <style>
      .cls-1 {
        fill: #fff;
        stroke-width: 0px;
      }
    </style>
  </defs>
  <g id="Layer_1-2" data-name="Layer 1">
    <path class="cls-1" d="M215.99,544.13c8.46,11.28,26.21,15.22,37.62,6.46,9.86-7.7,14.94-19.77,20.99-30.79,37.2-68.88,83.25-163.95,125.17-234.85,62.55-103.64,149.89-187.39,267.38-190.51,5.39.4,9.41,1.66,12.13,4.05,3.27,2.87,4.74,7.27,5.8,11.74,7.29,33.21,26.44,121.88,45.46,209.43,15.05,69.49,26.85,123.74,40.46,186.58,2.05,9.08,3.16,15.69,5.12,21.6,1.39,4.06,3.52,8.03,6.96,10.65,11.4,8.35,28.54,2.92,35.56-10.12,41.55-74.24,121.28-220.35,159.88-289.93C1056.6,95.31,1142.97-.6,1294.96,0c.33.02.66.04.98.06.17.01.69.05.56.04.61.05.58.05.9.08.59.06,1.21.14,1.78.24,1.66.23,3.6.85,4.56,1.84,1.1,1.14.98,2.74.23,4.83-39.41,90.51-330.55,784.77-369.02,867.58-2.85,2.52-8.23,3.54-17.5,3.37-10.48-.17-22.53-1.65-33.8-3.23-159.34-23.01-275.71-148.6-298.95-305.56-3.54-17.68-8.02-40.14-11.85-59.32-3.82-18.28-5.61-31.58-11.6-43.44-4.89-10.56-16.75-17.38-26.03-7.7-7.15,8.36-10.56,21.7-16.04,33.12-43.56,101.89-122.16,287.48-158.65,372.3-4.75,10.91-13.5,13.61-26.07,13.38-148.55-6.19-281.61-113.53-320.69-256.84-12.22-42.56-18.96-90.71-8.83-134.32,13.18-60.82,56.91-110.28,119.01-123.92,22.44-5.3,37.97-3.09,45.05,18.14,12.61,42.08,24.24,95.73,35.83,137.86,2.46,9.05,5.71,18.4,11,25.38l.17.22Z"/>
  </g>
</svg>